<svg width="147" height="147" viewBox="0 0 147 147" fill="none" xmlns="http://www.w3.org/2000/svg">
<path d="M73.5 0C80.2471 0 86.7549 0.861328 93.0234 2.58398C99.292 4.30664 105.13 6.79492 110.537 10.0488C115.944 13.3027 120.897 17.1309 125.395 21.5332C129.893 25.9355 133.745 30.8882 136.951 36.3911C140.157 41.894 142.622 47.7559 144.344 53.9766C146.067 60.1973 146.952 66.7051 147 73.5C147 80.2471 146.139 86.7549 144.416 93.0234C142.693 99.292 140.205 105.13 136.951 110.537C133.697 115.944 129.869 120.897 125.467 125.395C121.064 129.893 116.112 133.745 110.609 136.951C105.106 140.157 99.2441 142.622 93.0234 144.344C86.8027 146.067 80.2949 146.952 73.5 147C66.7529 147 60.2451 146.139 53.9766 144.416C47.708 142.693 41.8701 140.205 36.4629 136.951C31.0557 133.697 26.103 129.869 21.605 125.467C17.1069 121.064 13.2549 116.112 10.0488 110.609C6.84277 105.106 4.37842 99.2441 2.65576 93.0234C0.933105 86.8027 0.0478516 80.2949 0 73.5C0 66.7529 0.861328 60.2451 2.58398 53.9766C4.30664 47.708 6.79492 41.8701 10.0488 36.4629C13.3027 31.0557 17.1309 26.103 21.5332 21.605C25.9355 17.1069 30.8882 13.2549 36.3911 10.0488C41.894 6.84277 47.7559 4.37842 53.9766 2.65576C60.1973 0.933105 66.7051 0.0478516 73.5 0ZM116.782 49.1675L107.02 39.4058L59.7188 86.707L39.98 66.9683L30.2183 76.73L59.7188 106.23L116.782 49.1675Z" fill="#3AADEE"/>
</svg>
