<svg width="12" height="12" viewBox="0 0 12 12" fill="none" xmlns="http://www.w3.org/2000/svg">
<path d="M3.36607 1.04464H3.25C3.31384 1.04464 3.36607 0.992411 3.36607 0.928571V1.04464H7.77679V0.928571C7.77679 0.992411 7.82902 1.04464 7.89286 1.04464H7.77679V2.08929H8.82143V0.928571C8.82143 0.416406 8.40502 0 7.89286 0H3.25C2.73783 0 2.32143 0.416406 2.32143 0.928571V2.08929H3.36607V1.04464ZM10.6786 2.08929H0.464286C0.207478 2.08929 0 2.29676 0 2.55357V3.01786C0 3.0817 0.0522321 3.13393 0.116071 3.13393H0.992411L1.35078 10.7221C1.374 11.2169 1.78315 11.6071 2.2779 11.6071H8.86496C9.36116 11.6071 9.76886 11.2183 9.79208 10.7221L10.1504 3.13393H11.0268C11.0906 3.13393 11.1429 3.0817 11.1429 3.01786V2.55357C11.1429 2.29676 10.9354 2.08929 10.6786 2.08929ZM8.75324 10.5625H2.38962L2.0385 3.13393H9.10435L8.75324 10.5625Z" fill="#CF1322"/>
</svg>
