<svg width="16" height="16" viewBox="0 0 16 16" fill="none" xmlns="http://www.w3.org/2000/svg">
<path fill-rule="evenodd" clip-rule="evenodd" d="M4.73276 0.916842C5.66292 0.531556 6.65987 0.333252 7.66667 0.333252C8.67347 0.333252 9.67041 0.531556 10.6006 0.916842C11.5307 1.30213 12.3759 1.86685 13.0878 2.57877C13.7997 3.29068 14.3645 4.13585 14.7497 5.06601C15.135 5.99618 15.3333 6.99312 15.3333 7.99992C15.3333 9.00672 15.135 10.0037 14.7497 10.9338C14.3645 11.864 13.7997 12.7092 13.0878 13.4211C12.3759 14.133 11.5307 14.6977 10.6006 15.083C9.67041 15.4683 8.67347 15.6666 7.66667 15.6666C6.65987 15.6666 5.66292 15.4683 4.73276 15.083C3.8026 14.6977 2.95743 14.133 2.24551 13.4211C1.5336 12.7092 0.968876 11.864 0.58359 10.9338C0.198304 10.0037 0 9.00672 0 7.99992C0 6.99312 0.198304 5.99618 0.58359 5.06601C0.968876 4.13585 1.5336 3.29068 2.24551 2.57877C2.95743 1.86685 3.8026 1.30213 4.73276 0.916842ZM7.66667 1.86659C6.86123 1.86659 6.06367 2.02523 5.31954 2.33346C4.57541 2.64169 3.89928 3.09346 3.32974 3.663C2.76021 4.23253 2.30843 4.90866 2.00021 5.65279C1.69198 6.39692 1.53333 7.19448 1.53333 7.99992C1.53333 8.80536 1.69198 9.60291 2.00021 10.347C2.30843 11.0912 2.76021 11.7673 3.32974 12.3368C3.89928 12.9064 4.57541 13.3582 5.31954 13.6664C6.06367 13.9746 6.86123 14.1333 7.66667 14.1333C8.47211 14.1333 9.26966 13.9746 10.0138 13.6664C10.7579 13.3582 11.4341 12.9064 12.0036 12.3368C12.5731 11.7673 13.0249 11.0912 13.3331 10.347C13.6414 9.60291 13.8 8.80536 13.8 7.99992C13.8 7.19448 13.6414 6.39692 13.3331 5.65279C13.0249 4.90866 12.5731 4.23253 12.0036 3.663C11.4341 3.09346 10.7579 2.64169 10.0138 2.33346C9.26966 2.02523 8.47211 1.86659 7.66667 1.86659Z" fill="#0C2A6D"/>
<path fill-rule="evenodd" clip-rule="evenodd" d="M8.43343 4.16628C8.43327 3.74299 8.09009 3.3999 7.66676 3.3999C7.24335 3.3999 6.9001 3.74315 6.9001 4.16657C6.2901 4.16657 5.70509 4.40889 5.27375 4.84022C4.84242 5.27156 4.6001 5.85657 4.6001 6.46657C4.6001 7.07657 4.84242 7.66158 5.27375 8.09291C5.70509 8.52425 6.2901 8.76657 6.9001 8.76657V10.2999C6.8915 10.2999 6.8829 10.3 6.8743 10.3003C6.73534 10.305 6.59772 10.2718 6.47618 10.2043C6.35463 10.1368 6.25374 10.0375 6.1843 9.917C5.97283 9.55017 5.50403 9.42423 5.1372 9.6357C4.77037 9.84717 4.64442 10.316 4.85589 10.6828C5.06422 11.0442 5.3669 11.3421 5.73153 11.5447C6.08863 11.7431 6.49199 11.8427 6.9001 11.8335C6.90025 12.2568 7.24344 12.5999 7.66676 12.5999C8.09018 12.5999 8.43343 12.2567 8.43343 11.8332C9.04343 11.8332 9.62844 11.5909 10.0598 11.1596C10.4911 10.7282 10.7334 10.1432 10.7334 9.53324C10.7334 8.92324 10.4911 8.33822 10.0598 7.90689C9.62844 7.47556 9.04343 7.23324 8.43343 7.23324V5.6999C8.44203 5.6999 8.45063 5.69976 8.45923 5.69947C8.59819 5.69479 8.73581 5.72799 8.85735 5.79551C8.97889 5.86304 9.07979 5.96234 9.14923 6.0828C9.3607 6.44963 9.8295 6.57557 10.1963 6.36411C10.5632 6.15264 10.6891 5.68383 10.4776 5.317C10.2693 4.95563 9.96663 4.65771 9.602 4.45514C9.2449 4.25675 8.84153 4.15712 8.43343 4.16628ZM8.43343 8.76657V10.2999C8.63676 10.2999 8.83177 10.2191 8.97555 10.0754C9.11932 9.93157 9.2001 9.73657 9.2001 9.53324C9.2001 9.3299 9.11932 9.1349 8.97555 8.99112C8.83177 8.84734 8.63676 8.76657 8.43343 8.76657ZM6.9001 7.23324V5.6999C6.69677 5.6999 6.50176 5.78068 6.35798 5.92445C6.2142 6.06823 6.13343 6.26324 6.13343 6.46657C6.13343 6.6699 6.2142 6.86491 6.35798 7.00868C6.50176 7.15246 6.69677 7.23324 6.9001 7.23324Z" fill="#0C2A6D"/>
</svg>
