<svg width="28" height="20" viewBox="0 0 28 20" fill="none" xmlns="http://www.w3.org/2000/svg">
<path d="M24.6667 5L14.0001 11.25L3.33341 5V2.5L14.0001 8.75L24.6667 2.5M24.6667 0H3.33341C1.85341 0 0.666748 1.1125 0.666748 2.5V17.5C0.666748 18.163 0.947699 18.7989 1.4478 19.2678C1.94789 19.7366 2.62617 20 3.33341 20H24.6667C25.374 20 26.0523 19.7366 26.5524 19.2678C27.0525 18.7989 27.3334 18.163 27.3334 17.5V2.5C27.3334 1.83696 27.0525 1.20107 26.5524 0.732233C26.0523 0.263392 25.374 0 24.6667 0Z" fill="#D0D0D0"/>
</svg>
