<svg width="11" height="11" viewBox="0 0 11 11" fill="none" xmlns="http://www.w3.org/2000/svg">
<path d="M8.125 5.95833H5.95833V8.125H4.875V5.95833H2.70833V4.875H4.875V2.70833H5.95833V4.875H8.125M5.41667 0C4.70534 0 4.00098 0.140106 3.3438 0.412319C2.68662 0.684532 2.08949 1.08352 1.5865 1.5865C0.570683 2.60233 0 3.98008 0 5.41667C0 6.85326 0.570683 8.23101 1.5865 9.24683C2.08949 9.74981 2.68662 10.1488 3.3438 10.421C4.00098 10.6932 4.70534 10.8333 5.41667 10.8333C6.85326 10.8333 8.23101 10.2626 9.24683 9.24683C10.2626 8.23101 10.8333 6.85326 10.8333 5.41667C10.8333 4.70534 10.6932 4.00098 10.421 3.3438C10.1488 2.68662 9.74981 2.08949 9.24683 1.5865C8.74384 1.08352 8.14672 0.684532 7.48953 0.412319C6.83235 0.140106 6.12799 0 5.41667 0Z" fill="white"/>
</svg>
