<svg width="107" height="107" viewBox="0 0 107 107" fill="none" xmlns="http://www.w3.org/2000/svg">
<path d="M0.958496 0.625122V38.9585H10.5418V48.5418H20.1252V38.9585H39.2918V0.625122H0.958496ZM39.2918 38.9585V48.5418H48.8752V58.1251H29.7085V67.7085H0.958496V106.042H39.2918V67.7085H68.0418V58.1251H58.4585V48.5418H77.6252V38.9585H87.2085V48.5418H96.7918V38.9585H106.375V0.625122H68.0418V38.9585H39.2918ZM96.7918 48.5418V58.1251H106.375V48.5418H96.7918ZM96.7918 58.1251H87.2085V67.7085H96.7918V58.1251ZM96.7918 67.7085V77.2918H106.375V67.7085H96.7918ZM96.7918 77.2918H87.2085V67.7085H77.6252V77.2918H53.6668V106.042H63.2502V86.8751H82.4168V96.4585H92.0002V86.8751H96.7918V77.2918ZM82.4168 96.4585H72.8335V106.042H82.4168V96.4585ZM87.2085 58.1251V48.5418H77.6252V58.1251H87.2085ZM29.7085 58.1251V48.5418H20.1252V58.1251H29.7085ZM10.5418 48.5418H0.958496V58.1251H10.5418V48.5418ZM48.8752 0.625122V19.7918H44.0835V29.3751H48.8752V34.1668H58.4585V19.7918H63.2502V10.2085H58.4585V0.625122H48.8752ZM10.5418 10.2085H29.7085V29.3751H10.5418V10.2085ZM77.6252 10.2085H96.7918V29.3751H77.6252V10.2085ZM15.3335 15.0001V24.5835H24.9168V15.0001H15.3335ZM82.4168 15.0001V24.5835H92.0002V15.0001H82.4168ZM10.5418 77.2918H29.7085V96.4585H10.5418V77.2918ZM15.3335 82.0835V91.6668H24.9168V82.0835H15.3335ZM96.7918 96.4585V106.042H106.375V96.4585H96.7918Z" fill="black"/>
</svg>
