<svg width="14" height="13" viewBox="0 0 14 13" fill="none" xmlns="http://www.w3.org/2000/svg">
<path d="M4.3335 5.99988C4.52239 5.99988 4.68083 5.93588 4.80883 5.80788C4.93683 5.67988 5.00061 5.52166 5.00016 5.33321C5.00016 5.14432 4.93616 4.98588 4.80816 4.85788C4.68016 4.72988 4.52194 4.6661 4.3335 4.66655C4.14461 4.66655 3.98616 4.73055 3.85816 4.85855C3.73016 4.98655 3.66639 5.14477 3.66683 5.33321C3.66683 5.5221 3.73083 5.68055 3.85883 5.80855C3.98683 5.93655 4.14505 6.00032 4.3335 5.99988ZM7.00016 5.99988C7.18905 5.99988 7.3475 5.93588 7.4755 5.80788C7.6035 5.67988 7.66728 5.52166 7.66683 5.33321C7.66683 5.14432 7.60283 4.98588 7.47483 4.85788C7.34683 4.72988 7.18861 4.6661 7.00016 4.66655C6.81128 4.66655 6.65283 4.73055 6.52483 4.85855C6.39683 4.98655 6.33305 5.14477 6.3335 5.33321C6.3335 5.5221 6.3975 5.68055 6.5255 5.80855C6.6535 5.93655 6.81172 6.00032 7.00016 5.99988ZM9.66683 5.99988C9.85572 5.99988 10.0142 5.93588 10.1422 5.80788C10.2702 5.67988 10.3339 5.52166 10.3335 5.33321C10.3335 5.14432 10.2695 4.98588 10.1415 4.85788C10.0135 4.72988 9.85528 4.6661 9.66683 4.66655C9.47794 4.66655 9.3195 4.73055 9.1915 4.85855C9.0635 4.98655 8.99972 5.14477 9.00016 5.33321C9.00016 5.5221 9.06416 5.68055 9.19216 5.80855C9.32016 5.93655 9.47839 6.00032 9.66683 5.99988ZM0.333497 11.7165V1.33321C0.333497 0.966546 0.464164 0.652546 0.725497 0.391212C0.986831 0.129879 1.30061 -0.000565383 1.66683 -0.000120938H12.3335C12.7002 -0.000120938 13.0142 0.130546 13.2755 0.391879C13.5368 0.653212 13.6673 0.96699 13.6668 1.33321V9.33321C13.6668 9.69988 13.5362 10.0139 13.2748 10.2752C13.0135 10.5365 12.6997 10.667 12.3335 10.6665H3.00016L1.46683 12.1999C1.25572 12.411 1.01394 12.4583 0.741497 12.3419C0.469053 12.2254 0.333053 12.017 0.333497 11.7165ZM1.66683 10.1165L2.45016 9.33321H12.3335V1.33321H1.66683V10.1165Z" fill="#0C2A6D"/>
</svg>
