<svg width="24" height="24" viewBox="0 0 24 24" fill="none" xmlns="http://www.w3.org/2000/svg">
<path d="M23.3202 17.7891C23.1181 19.3248 22.3639 20.7344 21.1985 21.7547C20.033 22.775 18.536 23.3362 16.987 23.3334C7.98822 23.3334 0.666758 16.012 0.666758 7.01325C0.663982 5.46429 1.22515 3.9673 2.24544 2.80185C3.26574 1.6364 4.67539 0.882202 6.21112 0.680119C6.59947 0.632701 6.99274 0.712149 7.33222 0.906605C7.6717 1.10106 7.93919 1.40009 8.09475 1.75906L10.4884 7.10278V7.11638C10.6075 7.39116 10.6567 7.69117 10.6316 7.9896C10.6064 8.28802 10.5078 8.57559 10.3445 8.8266C10.3241 8.8572 10.3025 8.88553 10.2799 8.91386L7.92022 11.711C8.7691 13.4359 10.5734 15.2243 12.321 16.0755L15.0796 13.7283C15.1067 13.7055 15.1351 13.6843 15.1646 13.6648C15.4154 13.4976 15.704 13.3955 16.0042 13.3678C16.3044 13.34 16.6067 13.3876 16.8839 13.5062L16.8986 13.513L22.2379 15.9055C22.5975 16.0605 22.8972 16.3277 23.0923 16.6673C23.2874 17.0068 23.3674 17.4003 23.3202 17.7891Z" fill="#D0D0D0"/>
</svg>
