<svg width="18" height="18" viewBox="0 0 18 18" fill="none" xmlns="http://www.w3.org/2000/svg">
<path fill-rule="evenodd" clip-rule="evenodd" d="M2.636 15.3641C3.47173 16.1998 4.46389 16.8627 5.55583 17.315C6.64777 17.7673 7.8181 18.0001 9 18.0001C10.1819 18.0001 11.3522 17.7673 12.4442 17.315C13.5361 16.8627 14.5283 16.1998 15.364 15.3641C16.1997 14.5283 16.8627 13.5362 17.315 12.4442C17.7673 11.3523 18.0001 10.182 18.0001 9.00006C18.0001 7.81815 17.7673 6.64782 17.315 5.55588C16.8627 4.46395 16.1997 3.47179 15.364 2.63606C13.6762 0.948218 11.387 -1.77843e-08 9 0C6.61304 1.77843e-08 4.32384 0.948218 2.636 2.63606C0.948164 4.32389 -5.3388e-05 6.61309 -5.34058e-05 9.00006C-5.34235e-05 11.387 0.948164 13.6762 2.636 15.3641ZM4.807 14.6071C6.15524 15.6161 7.82204 16.1054 9.50179 15.9852C11.1815 15.865 12.7617 15.1433 13.9525 13.9525C15.1433 12.7617 15.8649 11.1816 15.9852 9.50185C16.1054 7.8221 15.6161 6.1553 14.607 4.80706L11.828 7.58606C11.6394 7.76821 11.3868 7.86901 11.1246 7.86673C10.8624 7.86445 10.6116 7.75928 10.4262 7.57387C10.2408 7.38847 10.1356 7.13765 10.1333 6.87546C10.131 6.61326 10.2318 6.36066 10.414 6.17206L13.192 3.39306C11.8435 2.38667 10.1776 1.89957 8.49931 2.0209C6.82102 2.14223 5.24255 2.86388 4.05278 4.05376C2.86301 5.24365 2.14153 6.8222 2.02037 8.5005C1.89921 10.1788 2.38648 11.8446 3.393 13.1931L6.172 10.4141C6.3606 10.2319 6.61321 10.1311 6.8754 10.1334C7.1376 10.1357 7.38841 10.2408 7.57382 10.4262C7.75923 10.6116 7.8644 10.8625 7.86668 11.1247C7.86895 11.3869 7.76816 11.6395 7.586 11.8281L4.807 14.6071Z" fill="#919191"/>
</svg>
