<svg width="12" height="12" viewBox="0 0 12 12" fill="none" xmlns="http://www.w3.org/2000/svg">
<path d="M6 0C2.68661 0 0 2.68661 0 6C0 9.31339 2.68661 12 6 12C9.31339 12 12 9.31339 12 6C12 2.68661 9.31339 0 6 0ZM6 10.9821C3.24911 10.9821 1.01786 8.75089 1.01786 6C1.01786 4.80804 1.43705 3.7125 2.13616 2.85536L9.14464 9.86384C8.2875 10.5629 7.19196 10.9821 6 10.9821ZM9.86384 9.14464L2.85536 2.13616C3.7125 1.43705 4.80804 1.01786 6 1.01786C8.75089 1.01786 10.9821 3.24911 10.9821 6C10.9821 7.19196 10.5629 8.2875 9.86384 9.14464Z" fill="black"/>
</svg>
