<svg width="3" height="5" viewBox="0 0 3 5" fill="none" xmlns="http://www.w3.org/2000/svg">
<path d="M0.594469 0.0989449L2.92396 2.3153C2.95161 2.34169 2.97124 2.37027 2.98285 2.40106C2.99447 2.43184 3.00018 2.46482 3 2.5C3 2.53518 2.99419 2.56816 2.98258 2.59894C2.97096 2.62973 2.95142 2.65831 2.92396 2.6847L0.594469 4.90765C0.529953 4.96922 0.449308 5 0.352534 5C0.255759 5 0.17281 4.96702 0.103686 4.90106C0.0345619 4.83509 -4.55693e-07 4.75814 -4.48004e-07 4.67018C-4.40315e-07 4.58223 0.0345619 4.50528 0.103686 4.43931L2.13594 2.5L0.103686 0.560686C0.0391704 0.49912 0.00691239 0.423219 0.0069124 0.332982C0.00691241 0.242745 0.0414745 0.164732 0.110599 0.0989449C0.179723 0.0329816 0.260368 2.37331e-07 0.352534 2.45388e-07C0.4447 2.53446e-07 0.525345 0.0329817 0.594469 0.0989449Z" fill="#2263C5"/>
</svg>
